# xmcd
#
# Track frame offsets: 
#        150
#        21407
#        44392
#        61290
#
# Disc length: 1113 seconds
#
# Revision: 2
# Processed by: cddbd v1.5.2PL0 Copyright (c) Steve Scherf et al.
# Submitted via: ExactAudioCopy v1.3
#
DISCID=30045704
DTITLE=Charles and Eddie - Would I Lie To You (Remix)
DYEAR=1900
DGENRE=
TTITLE0=Would I Lie To You (Ruffhouse Mix)
TTITLE1=Would I Lie To You (Truth and Soul Mix Ext. Version)
TTITLE2=Would I Lie To You (Funky Way Mix Laid Back Version)
TTITLE3=Would I Lie To You (Naked Truth Mix Acapella)
EXTD=
EXTT0=
EXTT1=
EXTT2=
EXTT3=
PLAYORDER=
